<mxfile host="app.diagrams.net" modified="2023-11-24T23:06:33.470Z" agent="Mozilla/5.0 (Windows NT 10.0; Win64; x64) AppleWebKit/537.36 (KHTML, like Gecko) Chrome/119.0.0.0 Safari/537.36" etag="ziRgpqPcqxsfB8aENO-5" version="22.1.4" type="device">
  <diagram name="Página-1" id="jahG8-6LIpspOq8SztPm">
    <mxGraphModel dx="1032" dy="539" grid="1" gridSize="10" guides="1" tooltips="1" connect="1" arrows="1" fold="1" page="1" pageScale="1" pageWidth="827" pageHeight="1169" math="0" shadow="0">
      <root>
        <mxCell id="0" />
        <mxCell id="1" parent="0" />
        <mxCell id="a_Q5ptUwFvNy82skGaC6-1" value="" style="edgeStyle=orthogonalEdgeStyle;rounded=0;orthogonalLoop=1;jettySize=auto;html=1;" edge="1" parent="1" source="a_Q5ptUwFvNy82skGaC6-3">
          <mxGeometry relative="1" as="geometry">
            <mxPoint x="399" y="90" as="targetPoint" />
          </mxGeometry>
        </mxCell>
        <mxCell id="a_Q5ptUwFvNy82skGaC6-2" value="serviços" style="edgeLabel;html=1;align=center;verticalAlign=middle;resizable=0;points=[];" vertex="1" connectable="0" parent="a_Q5ptUwFvNy82skGaC6-1">
          <mxGeometry x="-0.3394" y="2" relative="1" as="geometry">
            <mxPoint x="-2" y="3" as="offset" />
          </mxGeometry>
        </mxCell>
        <mxCell id="a_Q5ptUwFvNy82skGaC6-3" value="" style="ellipse;fillColor=strokeColor;html=1;" vertex="1" parent="1">
          <mxGeometry x="384" y="10" width="30" height="30" as="geometry" />
        </mxCell>
        <mxCell id="a_Q5ptUwFvNy82skGaC6-4" value="" style="edgeStyle=orthogonalEdgeStyle;rounded=0;orthogonalLoop=1;jettySize=auto;html=1;" edge="1" parent="1" source="a_Q5ptUwFvNy82skGaC6-7" target="a_Q5ptUwFvNy82skGaC6-8">
          <mxGeometry relative="1" as="geometry" />
        </mxCell>
        <mxCell id="a_Q5ptUwFvNy82skGaC6-5" value="" style="edgeStyle=orthogonalEdgeStyle;rounded=0;orthogonalLoop=1;jettySize=auto;html=1;" edge="1" parent="1" source="a_Q5ptUwFvNy82skGaC6-7" target="a_Q5ptUwFvNy82skGaC6-10">
          <mxGeometry relative="1" as="geometry" />
        </mxCell>
        <mxCell id="a_Q5ptUwFvNy82skGaC6-6" value="" style="edgeStyle=orthogonalEdgeStyle;rounded=0;orthogonalLoop=1;jettySize=auto;html=1;" edge="1" parent="1" source="a_Q5ptUwFvNy82skGaC6-7" target="a_Q5ptUwFvNy82skGaC6-13">
          <mxGeometry relative="1" as="geometry">
            <Array as="points">
              <mxPoint x="399" y="260" />
            </Array>
          </mxGeometry>
        </mxCell>
        <mxCell id="a_Q5ptUwFvNy82skGaC6-7" value="Abre o menu " style="rhombus;" vertex="1" parent="1">
          <mxGeometry x="336" y="90" width="126" height="80" as="geometry" />
        </mxCell>
        <mxCell id="a_Q5ptUwFvNy82skGaC6-8" value="Visualizar&amp;nbsp;" style="html=1;align=center;verticalAlign=top;rounded=1;absoluteArcSize=1;arcSize=10;dashed=0;whiteSpace=wrap;" vertex="1" parent="1">
          <mxGeometry x="10" y="110" width="140" height="40" as="geometry" />
        </mxCell>
        <mxCell id="a_Q5ptUwFvNy82skGaC6-9" value="" style="edgeStyle=orthogonalEdgeStyle;rounded=0;orthogonalLoop=1;jettySize=auto;html=1;" edge="1" parent="1" source="a_Q5ptUwFvNy82skGaC6-10" target="a_Q5ptUwFvNy82skGaC6-18">
          <mxGeometry relative="1" as="geometry">
            <Array as="points">
              <mxPoint x="740" y="420" />
            </Array>
          </mxGeometry>
        </mxCell>
        <mxCell id="a_Q5ptUwFvNy82skGaC6-10" value="Cadastrar&amp;nbsp;" style="html=1;align=center;verticalAlign=top;rounded=1;absoluteArcSize=1;arcSize=10;dashed=0;whiteSpace=wrap;" vertex="1" parent="1">
          <mxGeometry x="687" y="110" width="140" height="40" as="geometry" />
        </mxCell>
        <mxCell id="a_Q5ptUwFvNy82skGaC6-11" value="Excluir&amp;nbsp;" style="html=1;align=center;verticalAlign=top;rounded=1;absoluteArcSize=1;arcSize=10;dashed=0;whiteSpace=wrap;" vertex="1" parent="1">
          <mxGeometry x="460" y="240" width="140" height="40" as="geometry" />
        </mxCell>
        <mxCell id="a_Q5ptUwFvNy82skGaC6-12" style="edgeStyle=orthogonalEdgeStyle;rounded=0;orthogonalLoop=1;jettySize=auto;html=1;" edge="1" parent="1" source="a_Q5ptUwFvNy82skGaC6-13" target="a_Q5ptUwFvNy82skGaC6-18">
          <mxGeometry relative="1" as="geometry">
            <mxPoint x="266" y="390" as="targetPoint" />
            <Array as="points">
              <mxPoint x="266" y="420" />
            </Array>
          </mxGeometry>
        </mxCell>
        <mxCell id="a_Q5ptUwFvNy82skGaC6-13" value="Atualizar&amp;nbsp;" style="html=1;align=center;verticalAlign=top;rounded=1;absoluteArcSize=1;arcSize=10;dashed=0;whiteSpace=wrap;" vertex="1" parent="1">
          <mxGeometry x="196" y="240" width="140" height="40" as="geometry" />
        </mxCell>
        <mxCell id="a_Q5ptUwFvNy82skGaC6-14" value="" style="edgeStyle=orthogonalEdgeStyle;rounded=0;orthogonalLoop=1;jettySize=auto;html=1;entryX=0;entryY=0.5;entryDx=0;entryDy=0;" edge="1" parent="1" target="a_Q5ptUwFvNy82skGaC6-11">
          <mxGeometry relative="1" as="geometry">
            <mxPoint x="399" y="170" as="sourcePoint" />
            <mxPoint x="330" y="260" as="targetPoint" />
            <Array as="points">
              <mxPoint x="399" y="260" />
            </Array>
          </mxGeometry>
        </mxCell>
        <mxCell id="a_Q5ptUwFvNy82skGaC6-15" value="" style="edgeStyle=orthogonalEdgeStyle;rounded=0;orthogonalLoop=1;jettySize=auto;html=1;" edge="1" parent="1" source="a_Q5ptUwFvNy82skGaC6-16">
          <mxGeometry relative="1" as="geometry">
            <mxPoint x="399" y="610" as="targetPoint" />
          </mxGeometry>
        </mxCell>
        <mxCell id="a_Q5ptUwFvNy82skGaC6-16" value="Inserir dados necessários&amp;nbsp;" style="html=1;align=center;verticalAlign=top;rounded=1;absoluteArcSize=1;arcSize=10;dashed=0;whiteSpace=wrap;" vertex="1" parent="1">
          <mxGeometry x="329" y="510" width="140" height="40" as="geometry" />
        </mxCell>
        <mxCell id="a_Q5ptUwFvNy82skGaC6-17" value="" style="edgeStyle=orthogonalEdgeStyle;rounded=0;orthogonalLoop=1;jettySize=auto;html=1;" edge="1" parent="1" source="a_Q5ptUwFvNy82skGaC6-18" target="a_Q5ptUwFvNy82skGaC6-16">
          <mxGeometry relative="1" as="geometry" />
        </mxCell>
        <mxCell id="a_Q5ptUwFvNy82skGaC6-18" value="" style="rhombus;" vertex="1" parent="1">
          <mxGeometry x="366" y="390" width="66" height="60" as="geometry" />
        </mxCell>
        <mxCell id="a_Q5ptUwFvNy82skGaC6-19" value="" style="edgeStyle=orthogonalEdgeStyle;rounded=0;orthogonalLoop=1;jettySize=auto;html=1;entryX=0.5;entryY=0;entryDx=0;entryDy=0;exitX=0.432;exitY=1.034;exitDx=0;exitDy=0;exitPerimeter=0;" edge="1" parent="1" source="a_Q5ptUwFvNy82skGaC6-11" target="a_Q5ptUwFvNy82skGaC6-18">
          <mxGeometry relative="1" as="geometry">
            <mxPoint x="520" y="290" as="sourcePoint" />
            <mxPoint x="720" y="260" as="targetPoint" />
            <Array as="points">
              <mxPoint x="521" y="350" />
              <mxPoint x="399" y="350" />
            </Array>
          </mxGeometry>
        </mxCell>
        <mxCell id="a_Q5ptUwFvNy82skGaC6-22" value="" style="ellipse;html=1;shape=endState;fillColor=strokeColor;" vertex="1" parent="1">
          <mxGeometry x="384" y="610" width="30" height="30" as="geometry" />
        </mxCell>
      </root>
    </mxGraphModel>
  </diagram>
</mxfile>
